<svg width="17" height="16" viewBox="0 0 17 16" fill="none" xmlns="http://www.w3.org/2000/svg">
<path d="M1.2069 14.3643C0.862687 13.9734 0.677503 13.4678 0.687917 12.9471C0.69833 12.4264 0.903581 11.9285 1.26315 11.5518L8.74441 2.88928C8.99619 2.56222 9.31199 2.28991 9.67253 2.08897C10.0331 1.88803 10.4308 1.76268 10.8414 1.72056C11.2519 1.67845 11.6668 1.72046 12.0606 1.84403C12.4545 1.9676 12.819 2.17014 13.1319 2.43928C13.401 2.75221 13.6036 3.11671 13.7271 3.51053C13.8507 3.90435 13.8927 4.31923 13.8506 4.72982C13.8085 5.14042 13.6831 5.53812 13.4822 5.89866C13.2813 6.25919 13.009 6.57499 12.6819 6.82678L4.0194 14.308C3.64265 14.6676 3.14479 14.8728 2.62409 14.8833C2.1034 14.8937 1.59773 14.7085 1.2069 14.3643Z" stroke="#71899E" stroke-linecap="round" stroke-linejoin="round"/>
<path d="M2.10693 10.5392L3.11944 11.608" stroke="#71899E" stroke-linecap="round" stroke-linejoin="round"/>
<path d="M8.23828 4.46423L9.25079 5.47674" stroke="#71899E" stroke-linecap="round" stroke-linejoin="round"/>
<path d="M7.33838 9.52673L8.35087 10.5392" stroke="#71899E" stroke-linecap="round" stroke-linejoin="round"/>
<path d="M13.1318 2.43925C13.2749 1.90479 13.601 1.43748 14.0533 1.11882C14.5056 0.800152 15.0554 0.650347 15.6068 0.695509" stroke="#71899E" stroke-linecap="round" stroke-linejoin="round"/>
</svg>
